<svg width="55" height="13" viewBox="0 0 55 13" fill="none" xmlns="http://www.w3.org/2000/svg">
<path d="M6.80319 3.216C6.80319 3.664 6.69519 4.084 6.47919 4.476C6.27119 4.868 5.93919 5.184 5.48319 5.424C5.03519 5.664 4.46719 5.784 3.77919 5.784H2.37519V9H0.695188V0.624H3.77919C4.42719 0.624 4.97919 0.736 5.43519 0.96C5.89119 1.184 6.23119 1.492 6.45519 1.884C6.68719 2.276 6.80319 2.72 6.80319 3.216ZM3.70719 4.428C4.17119 4.428 4.51519 4.324 4.73919 4.116C4.96319 3.9 5.07519 3.6 5.07519 3.216C5.07519 2.4 4.61919 1.992 3.70719 1.992H2.37519V4.428H3.70719ZM7.56397 5.652C7.56397 4.98 7.69597 4.384 7.95997 3.864C8.23197 3.344 8.59597 2.944 9.05197 2.664C9.51597 2.384 10.032 2.244 10.6 2.244C11.096 2.244 11.528 2.344 11.896 2.544C12.272 2.744 12.572 2.996 12.796 3.3V2.352H14.488V9H12.796V8.028C12.58 8.34 12.28 8.6 11.896 8.808C11.52 9.008 11.084 9.108 10.588 9.108C10.028 9.108 9.51597 8.964 9.05197 8.676C8.59597 8.388 8.23197 7.984 7.95997 7.464C7.69597 6.936 7.56397 6.332 7.56397 5.652ZM12.796 5.676C12.796 5.268 12.716 4.92 12.556 4.632C12.396 4.336 12.18 4.112 11.908 3.96C11.636 3.8 11.344 3.72 11.032 3.72C10.72 3.72 10.432 3.796 10.168 3.948C9.90397 4.1 9.68797 4.324 9.51997 4.62C9.35997 4.908 9.27997 5.252 9.27997 5.652C9.27997 6.052 9.35997 6.404 9.51997 6.708C9.68797 7.004 9.90397 7.232 10.168 7.392C10.44 7.552 10.728 7.632 11.032 7.632C11.344 7.632 11.636 7.556 11.908 7.404C12.18 7.244 12.396 7.02 12.556 6.732C12.716 6.436 12.796 6.084 12.796 5.676ZM22.4888 2.352L18.3728 12.144H16.5848L18.0248 8.832L15.3608 2.352H17.2448L18.9608 6.996L20.7008 2.352H22.4888ZM31.6504 2.256C32.4664 2.256 33.1224 2.508 33.6184 3.012C34.1224 3.508 34.3744 4.204 34.3744 5.1V9H32.6944V5.328C32.6944 4.808 32.5624 4.412 32.2984 4.14C32.0344 3.86 31.6744 3.72 31.2184 3.72C30.7624 3.72 30.3984 3.86 30.1264 4.14C29.8624 4.412 29.7304 4.808 29.7304 5.328V9H28.0504V5.328C28.0504 4.808 27.9184 4.412 27.6544 4.14C27.3904 3.86 27.0304 3.72 26.5744 3.72C26.1104 3.72 25.7424 3.86 25.4704 4.14C25.2064 4.412 25.0744 4.808 25.0744 5.328V9H23.3944V2.352H25.0744V3.156C25.2904 2.876 25.5664 2.656 25.9024 2.496C26.2464 2.336 26.6224 2.256 27.0304 2.256C27.5504 2.256 28.0144 2.368 28.4224 2.592C28.8304 2.808 29.1464 3.12 29.3704 3.528C29.5864 3.144 29.8984 2.836 30.3064 2.604C30.7224 2.372 31.1704 2.256 31.6504 2.256ZM42.1486 5.532C42.1486 5.772 42.1326 5.988 42.1006 6.18H37.2406C37.2806 6.66 37.4486 7.036 37.7446 7.308C38.0406 7.58 38.4046 7.716 38.8366 7.716C39.4606 7.716 39.9046 7.448 40.1686 6.912H41.9806C41.7886 7.552 41.4206 8.08 40.8766 8.496C40.3326 8.904 39.6646 9.108 38.8726 9.108C38.2326 9.108 37.6566 8.968 37.1446 8.688C36.6406 8.4 36.2446 7.996 35.9566 7.476C35.6766 6.956 35.5366 6.356 35.5366 5.676C35.5366 4.988 35.6766 4.384 35.9566 3.864C36.2366 3.344 36.6286 2.944 37.1326 2.664C37.6366 2.384 38.2166 2.244 38.8726 2.244C39.5046 2.244 40.0686 2.38 40.5646 2.652C41.0686 2.924 41.4566 3.312 41.7286 3.816C42.0086 4.312 42.1486 4.884 42.1486 5.532ZM40.4086 5.052C40.4006 4.62 40.2446 4.276 39.9406 4.02C39.6366 3.756 39.2646 3.624 38.8246 3.624C38.4086 3.624 38.0566 3.752 37.7686 4.008C37.4886 4.256 37.3166 4.604 37.2526 5.052H40.4086ZM47.0589 2.256C47.8509 2.256 48.4909 2.508 48.9789 3.012C49.4669 3.508 49.7109 4.204 49.7109 5.1V9H48.0309V5.328C48.0309 4.8 47.8989 4.396 47.6349 4.116C47.3709 3.828 47.0109 3.684 46.5549 3.684C46.0909 3.684 45.7229 3.828 45.4509 4.116C45.1869 4.396 45.0549 4.8 45.0549 5.328V9H43.3749V2.352H45.0549V3.18C45.2789 2.892 45.5629 2.668 45.9069 2.508C46.2589 2.34 46.6429 2.256 47.0589 2.256ZM53.2645 3.732V6.948C53.2645 7.172 53.3165 7.336 53.4205 7.44C53.5325 7.536 53.7165 7.584 53.9725 7.584H54.7525V9H53.6965C52.2805 9 51.5725 8.312 51.5725 6.936V3.732H50.7805V2.352H51.5725V0.707999H53.2645V2.352H54.7525V3.732H53.2645Z" fill="white"/>
</svg>
