<svg width="75" height="40" viewBox="0 0 75 40" fill="none" xmlns="http://www.w3.org/2000/svg">
<g filter="url(#filter0_d_629_3286)">
<path fill-rule="evenodd" clip-rule="evenodd" d="M5.50477 4.43062H9.71068C9.33393 4.17376 8.62467 3.84668 7.45718 3.84668C6.61212 3.84668 5.97929 4.08258 5.50477 4.43062ZM10.4168 4.43062H14.816C14.2976 4.08258 13.572 3.84668 12.5586 3.84668C11.4885 3.84668 10.7959 4.17376 10.4168 4.43062ZM4.91113 5.01456H15.4445C15.2677 4.78747 15.0554 4.5903 14.816 4.43062H10.4168C10.172 4.59629 10.0579 4.73248 10.0579 4.73248C10.0579 4.73248 9.95318 4.59629 9.71068 4.43062H5.50477C5.28042 4.59638 5.08057 4.79296 4.91113 5.01456Z" fill="#CCCCCC"/>
<path fill-rule="evenodd" clip-rule="evenodd" d="M4.55908 5.5789H15.7866C15.6947 5.37844 15.58 5.18927 15.4448 5.01514H4.911C4.77132 5.19672 4.65531 5.388 4.55908 5.5789Z" fill="#CCCCCC"/>
<path fill-rule="evenodd" clip-rule="evenodd" d="M4.3188 6.16206H15.991C15.9408 5.96153 15.8722 5.76606 15.7861 5.57812H4.55898C4.45887 5.77678 4.3805 5.97505 4.3188 6.16206ZM4.16632 6.74639H6.85282C7.02587 6.54541 7.31105 6.36382 7.77704 6.36382C8.24341 6.36382 8.5088 6.54579 8.65935 6.74639H11.6368C11.8126 6.54541 12.1028 6.36382 12.5777 6.36382C13.0263 6.36382 13.2936 6.54579 13.4527 6.74639H16.0895C16.0716 6.54949 16.0385 6.35426 15.9906 6.16245H4.3188C4.25604 6.35378 4.20511 6.5488 4.16632 6.74639Z" fill="#CCCCCC"/>
<path fill-rule="evenodd" clip-rule="evenodd" d="M4.0962 7.31035H6.59685V7.26999C6.59685 7.26999 6.63953 6.99413 6.85293 6.74658H4.16642C4.10512 7.06125 4.0962 7.26999 4.0962 7.26999V7.31035ZM8.85772 7.31035H11.3785V7.26999C11.3785 7.26999 11.4216 6.99413 11.6377 6.74658H8.66022C8.77277 6.89969 8.84121 7.08072 8.8581 7.26999V7.31035H8.85772ZM13.6786 7.31035H16.0993V7.26999C16.0993 7.26999 16.1187 7.06086 16.09 6.74658H13.4532C13.6479 6.99413 13.6786 7.26999 13.6786 7.26999V7.31035ZM4.09503 7.89428H6.59685V7.31035H4.0962L4.09503 7.89428ZM8.85772 7.89428H11.3785V7.31035H8.85772V7.89428ZM13.6786 7.89428H16.0993V7.31035H13.6786V7.89428Z" fill="#CCCCCC"/>
<path fill-rule="evenodd" clip-rule="evenodd" d="M4.0939 8.47896H6.59727V7.89502H4.09545L4.0939 8.47896ZM8.85775 8.47896H11.3786V7.89502H8.85775V8.47896ZM13.6786 8.47896H16.0994V7.89502H13.6786V8.47896ZM4.09235 9.04272H6.59688V8.47896H4.09351L4.09235 9.04272ZM8.85775 9.04272H11.3786V8.47896H8.85775V9.04272ZM13.6786 9.04272H16.0994V8.47896H13.6786V9.04272Z" fill="#CCCCCC"/>
<path fill-rule="evenodd" clip-rule="evenodd" d="M4.09162 9.62593H6.59731V9.04199H4.09239L4.09162 9.62593ZM8.85779 9.62593H11.3786V9.04199H8.85779V9.62593ZM13.6787 9.62593H16.0994V9.04199H13.6787V9.62593ZM4.09045 10.1897H6.59731V9.62593H4.09162L4.09045 10.1897ZM8.85779 10.1897H11.3786V9.62593H8.85779V10.1897ZM13.6787 10.1897H16.0994V9.62593H13.6787V10.1897Z" fill="#CCCCCC"/>
<path fill-rule="evenodd" clip-rule="evenodd" d="M4.08881 10.7743H6.59683V10.1899H4.08997L4.08881 10.7743ZM8.8577 10.7743H11.3785V10.1899H8.8577V10.7743ZM13.6786 10.7743H16.0993V10.1899H13.6786V10.7743ZM4.08765 11.3582H6.59722V10.7743H4.0892L4.08765 11.3582ZM8.8577 11.3582H11.3785V10.7743H8.8577V11.3582ZM13.6786 11.3582H16.0993V10.7743H13.6786V11.3582Z" fill="#CCCCCC"/>
<path fill-rule="evenodd" clip-rule="evenodd" d="M4.08643 11.9217H6.59717V11.3579H4.08759L4.08643 11.9217ZM8.85765 11.9217H11.3785V11.3579H8.85765V11.9217ZM13.6785 11.9217H16.0992V11.3579H13.6785V11.9217Z" fill="#CCCCCC"/>
<path fill-rule="evenodd" clip-rule="evenodd" d="M4.08533 12.5062H6.59723V11.9219H4.08649L4.08533 12.5062ZM8.85771 12.5062H11.3785V11.9219H8.85771V12.5062ZM13.6786 12.5062H16.0993V11.9219H13.6786V12.5062Z" fill="#CCCCCC"/>
<path fill-rule="evenodd" clip-rule="evenodd" d="M4.08374 13.0898H6.5972V12.5059H4.08529L4.08374 13.0898ZM8.85768 13.0898H11.3785V12.5059H8.85768V13.0898ZM13.6786 13.0898H16.0993V12.5059H13.6786V13.0898Z" fill="#CCCCCC"/>
<path fill-rule="evenodd" clip-rule="evenodd" d="M4.08306 13.6536H6.59729V13.0898H4.08384L4.08306 13.6536ZM8.85777 13.6536H11.3786V13.0898H8.85777V13.6536ZM13.6787 13.6536H16.0994V13.0898H13.6787V13.6536ZM4.08151 14.2375H6.5969V13.6536H4.08267L4.08151 14.2375ZM8.85777 14.2375H11.3786V13.6536H8.85777V14.2375ZM13.6787 14.2375H16.0994V13.6536H13.6787V14.2375ZM4.07996 14.8219H6.5969V14.2379H4.08151L4.07996 14.8219ZM8.85777 14.8219H11.3786V14.2379H8.85777V14.8219ZM13.6787 14.8219H16.0994V14.2379H13.6787V14.8219Z" fill="#CCCCCC"/>
<path fill-rule="evenodd" clip-rule="evenodd" d="M4.0788 15.3855H6.59691V14.8218H4.07996L4.0788 15.3855ZM8.85778 15.3855H11.3786V14.8218H8.85778V15.3855ZM13.6787 15.3855H16.0994V14.8218H13.6787V15.3855ZM4.07764 15.9695H6.59691V15.3855H4.0788L4.07764 15.9695ZM8.85778 15.9695H11.3786V15.3855H8.85778V15.9695ZM13.6787 15.9695H16.0994V15.3855H13.6787V15.9695Z" fill="#CCCCCC"/>
<path fill-rule="evenodd" clip-rule="evenodd" d="M4.07642 16.5537H6.59724V15.9697H4.07797L4.07642 16.5537ZM8.85772 16.5537H11.3785V15.9697H8.85772V16.5537ZM13.6786 16.5537H16.0993V15.9697H13.6786V16.5537Z" fill="#CCCCCC"/>
<path fill-rule="evenodd" clip-rule="evenodd" d="M4.0752 17.117H6.59719V16.5532H4.07636L4.0752 17.117ZM8.85767 17.117H11.3785V16.5532H8.85767V17.117ZM13.6786 17.117H16.0993V16.5532H13.6786V17.117ZM4.07404 17.7013H6.59719V17.117H4.0752L4.07404 17.7013ZM8.85767 17.7013H11.3785V17.117H8.85767V17.7013ZM13.6786 17.7013H16.0993V17.117H13.6786V17.7013Z" fill="#CCCCCC"/>
<path fill-rule="evenodd" clip-rule="evenodd" d="M4.07258 18.2654H6.5969V17.7017H4.07374L4.07258 18.2654ZM8.85777 18.2654H11.3786V17.7017H8.85777V18.2654ZM13.6786 18.2654H16.0994V17.7017H13.6786V18.2654ZM4.07142 18.8497H6.59729V18.2654H4.07297L4.07142 18.8497ZM8.85777 18.8497H11.3786V18.2654H8.85777V18.8497ZM13.6786 18.8497H16.0994V18.2654H13.6786V18.8497ZM4.07025 19.4333H6.59729V18.8497H4.07142L4.07025 19.4333ZM8.85777 19.4333H11.3786V18.8497H8.85777V19.4333ZM13.6786 19.4333H16.0994V18.8497H13.6786V19.4333Z" fill="#CCCCCC"/>
<path fill-rule="evenodd" clip-rule="evenodd" d="M4.06861 19.9981H6.59719V19.4336H4.07016L4.06861 19.9981ZM8.85768 19.9981H11.3785V19.4336H8.85768V19.9981ZM13.6786 19.9981H16.0993V19.4336H13.6786V19.9981ZM4.06744 20.5817H6.59681V19.9981H4.06822L4.06744 20.5817ZM8.85768 20.5817H11.3785V19.9981H8.85768V20.5817ZM13.6786 20.5817H16.0993V19.9981H13.6786V20.5817Z" fill="#CCCCCC"/>
<path fill-rule="evenodd" clip-rule="evenodd" d="M4.06631 21.1654H6.59684V20.5811H4.06747L4.06631 21.1654ZM8.85771 21.1654H11.3785V20.5811H8.85771V21.1654ZM13.6786 21.1654H16.0993V20.5811H13.6786V21.1654ZM4.06476 21.7295H6.59684V21.1658H4.06631L4.06476 21.7295ZM8.85771 21.7295H11.3785V21.1658H8.85771V21.7295ZM13.6786 21.7295H16.0993V21.1658H13.6786V21.7295Z" fill="#CCCCCC"/>
<path fill-rule="evenodd" clip-rule="evenodd" d="M4.06403 22.3138H6.59727V21.7295H4.06519L4.06403 22.3138ZM8.85775 22.3138H11.3786V21.7295H8.85775V22.3138ZM13.6786 22.3138H16.0994V21.7295H13.6786V22.3138Z" fill="#CCCCCC"/>
<path fill-rule="evenodd" clip-rule="evenodd" d="M4.06238 22.897H6.59679V22.3135H4.06355L4.06238 22.897ZM8.85766 22.897H11.3785V22.3135H8.85766V22.897ZM13.6785 22.897H16.0993V22.3135H13.6785V22.897ZM4.06122 23.4608H6.59679V22.897H4.06238L4.06122 23.4608ZM8.85766 23.4608H11.3785V22.897H8.85766V23.4608ZM13.6785 23.4608H16.0993V22.897H13.6785V23.4608Z" fill="#CCCCCC"/>
<path fill-rule="evenodd" clip-rule="evenodd" d="M4.06007 24.0453H6.5968V23.4609H4.06123L4.06007 24.0453ZM8.85767 24.0453H11.3785V23.4609H8.85767V24.0453ZM13.6786 24.0453H16.0993V23.4609H13.6786V24.0453ZM4.05929 24.6296H6.59719V24.0453H4.06046L4.05929 24.6296ZM8.85767 24.6296H11.3785V24.0453H8.85767V24.6296ZM13.6786 24.6296H16.0993V24.0453H13.6786V24.6296ZM4.05774 25.1933H6.59719V24.6296H4.05929L4.05774 25.1933ZM8.85767 25.1933H11.3785V24.6296H8.85767V25.1933ZM13.6786 25.1933H16.0993V24.6296H13.6786V25.1933Z" fill="#CCCCCC"/>
<path fill-rule="evenodd" clip-rule="evenodd" d="M4.05664 25.7764H6.59726V25.1929H4.0578L4.05664 25.7764ZM8.85774 25.7764H11.3786V25.1929H8.85774V25.7764ZM13.6786 25.7764H16.0993V25.1929H13.6786V25.7764Z" fill="#CCCCCC"/>
<path fill-rule="evenodd" clip-rule="evenodd" d="M34.7244 3.60493H35.0546L34.7244 3.021V3.60493ZM34.7244 4.20905H35.3968L35.0546 3.60493H34.7244V4.20905Z" fill="#CCCCCC"/>
<path fill-rule="evenodd" clip-rule="evenodd" d="M34.7244 4.8131H35.7387L35.3968 4.20898H34.7244V4.8131ZM39.6256 4.8131H41.9862V4.22916H39.6256V4.8131Z" fill="#CCCCCC"/>
<path fill-rule="evenodd" clip-rule="evenodd" d="M34.7244 5.41749H36.0809L35.7387 4.81299H34.7244V5.41749ZM39.6256 5.41749H41.9862V4.81299H39.6256V5.41749Z" fill="#CCCCCC"/>
<path fill-rule="evenodd" clip-rule="evenodd" d="M34.7244 6.00142H36.4111L36.0809 5.41748H34.7244V6.00142ZM39.6256 6.00142H41.9862V5.41748H39.6256V6.00142Z" fill="#CCCCCC"/>
<path fill-rule="evenodd" clip-rule="evenodd" d="M34.7244 6.60558H36.7533L36.4111 6.00146H34.7244V6.60558ZM39.6256 6.60558H41.9862V6.00146H39.6256V6.60558ZM34.7244 7.20969H37.0951L36.7533 6.60558H34.7244V7.20969ZM39.6256 7.20969H41.9862V6.60558H39.6256V7.20969Z" fill="#CCCCCC"/>
<path fill-rule="evenodd" clip-rule="evenodd" d="M34.7244 7.8132H37.4373L37.0951 7.20947H34.7244V7.8132ZM39.6256 7.8132H41.9862V7.20947H39.6256V7.8132ZM34.7244 8.39753H37.7675L37.4369 7.8132H34.7241V8.39753H34.7244ZM39.6256 8.39753H41.9862V7.8132H39.6256V8.39753Z" fill="#CCCCCC"/>
<path fill-rule="evenodd" clip-rule="evenodd" d="M34.7244 9.00206H38.1093L37.7675 8.39795H34.7244V9.00206ZM39.6256 9.00206H41.9862V8.39795H39.6256V9.00206ZM34.7244 9.60618H38.4519L38.1093 9.00206H34.7244V9.60618ZM39.6256 9.60618H41.9862V9.00206H39.6256V9.60618Z" fill="#CCCCCC"/>
<path fill-rule="evenodd" clip-rule="evenodd" d="M34.7244 10.2105H38.7938L38.4519 9.60596H34.7244V10.2105ZM39.6256 10.2105H41.9862V9.60596H39.6256V10.2105Z" fill="#CCCCCC"/>
<path fill-rule="evenodd" clip-rule="evenodd" d="M34.7244 10.7939H39.1239L38.7934 10.21H34.7244V10.7939ZM39.6256 10.7939H41.9862V10.21H39.6256V10.7939ZM34.7244 11.398H39.4658L39.1239 10.7939H34.7244V11.398ZM39.6256 11.398H41.9862V10.7939H39.6256V11.398Z" fill="#CCCCCC"/>
<path fill-rule="evenodd" clip-rule="evenodd" d="M34.7244 12.0021H41.9862V11.3979H39.6256V11.6804L39.4658 11.3979H34.7244V12.0021ZM34.7244 12.6062H37.0447V12.0626L37.3946 12.6062H41.9862V12.0021H34.7244V12.6062Z" fill="#CCCCCC"/>
<path fill-rule="evenodd" clip-rule="evenodd" d="M34.7244 13.1909H37.0447V12.6069H34.7244V13.1909ZM37.7698 13.1909H41.9862V12.6069H37.3946L37.7698 13.1909Z" fill="#CCCCCC"/>
<path fill-rule="evenodd" clip-rule="evenodd" d="M34.7244 13.795H37.0447V13.1909H34.7244V13.795ZM38.1586 13.795H41.9862V13.1909H37.7698L38.1586 13.795Z" fill="#CCCCCC"/>
<path fill-rule="evenodd" clip-rule="evenodd" d="M34.7244 14.3985H37.0447V13.7944H34.7244V14.3985ZM38.5474 14.3985H41.9862V13.7944H38.1586L38.5474 14.3985Z" fill="#CCCCCC"/>
<path fill-rule="evenodd" clip-rule="evenodd" d="M34.7244 14.9833H37.0447V14.3989H34.7244V14.9833ZM38.9226 14.9833H41.9862V14.3989H38.5474L38.9226 14.9833Z" fill="#CCCCCC"/>
<path fill-rule="evenodd" clip-rule="evenodd" d="M34.7244 15.587H37.0447V14.9829H34.7244V15.587ZM39.311 15.587H41.9862V14.9829H38.9226L39.311 15.587Z" fill="#CCCCCC"/>
<path fill-rule="evenodd" clip-rule="evenodd" d="M34.7244 16.191H37.0447V15.5869H34.7244V16.191ZM39.6997 16.191H41.9862V15.5869H39.311L39.6997 16.191ZM34.7244 16.7951H37.0447V16.191H34.7244V16.7951ZM39.7257 16.7951H41.9862V16.191H39.6997L39.7253 16.2314V16.7951H39.7257ZM34.7244 17.3795H37.0447V16.7951H34.7244V17.3795ZM39.7257 17.3795H41.9862V16.7951H39.7257V17.3795Z" fill="#CCCCCC"/>
<path fill-rule="evenodd" clip-rule="evenodd" d="M34.7244 17.983H37.0447V17.3789H34.7244V17.983ZM39.7257 17.983H41.9862V17.3789H39.7257V17.983ZM34.7244 18.5871H37.0447V17.983H34.7244V18.5871ZM39.7257 18.5871H41.9862V17.983H39.7257V18.5871Z" fill="#CCCCCC"/>
<path fill-rule="evenodd" clip-rule="evenodd" d="M34.7244 19.1918H37.0447V18.5869H34.7244V19.1918ZM39.7257 19.1918H41.9862V18.5869H39.7257V19.1918Z" fill="#CCCCCC"/>
<path fill-rule="evenodd" clip-rule="evenodd" d="M34.7244 19.7754H37.0447V19.1919H34.7244V19.7754ZM39.7257 19.7754H41.9862V19.1919H39.7257V19.7754ZM34.7244 20.3803H37.0447V19.7754H34.7244V20.3803ZM39.7257 20.3803H41.9862V19.7754H39.7257V20.3803Z" fill="#CCCCCC"/>
<path fill-rule="evenodd" clip-rule="evenodd" d="M34.7244 20.9845H37.0447V20.3804H34.7244V20.9845ZM39.7257 20.9845H41.9862V20.3804H39.7257V20.9845Z" fill="#CCCCCC"/>
<path fill-rule="evenodd" clip-rule="evenodd" d="M34.7244 21.588H37.0447V20.9839H34.7244V21.588ZM39.7257 21.588H41.9862V20.9839H39.7257V21.588ZM34.7244 22.1723H37.0447V21.588H34.7244V22.1723ZM39.7257 22.1723H41.9862V21.588H39.7257V22.1723Z" fill="#CCCCCC"/>
<path fill-rule="evenodd" clip-rule="evenodd" d="M34.7244 22.777H37.0447V22.1729H34.7244V22.777ZM39.7257 22.777H41.9862V22.1729H39.7257V22.777Z" fill="#CCCCCC"/>
<path fill-rule="evenodd" clip-rule="evenodd" d="M34.7244 23.3805H37.0447V22.7764H34.7244V23.3805ZM39.7257 23.3805H41.9862V22.7764H39.7257V23.3805Z" fill="#CCCCCC"/>
<path fill-rule="evenodd" clip-rule="evenodd" d="M34.7244 23.9845H37.0447V23.3804H34.7244V23.9845ZM39.7257 23.9845H41.9862V23.3804H39.7257V23.9845Z" fill="#CCCCCC"/>
<path fill-rule="evenodd" clip-rule="evenodd" d="M34.7244 24.5692H37.0447V23.9849H34.7244V24.5692ZM39.7257 24.5692H41.9862V23.9849H39.7257V24.5692ZM34.7244 25.1733H37.0447V24.5692H34.7244V25.1733ZM39.7257 25.1733H41.9862V24.5692H39.7257V25.1733Z" fill="#CCCCCC"/>
<path fill-rule="evenodd" clip-rule="evenodd" d="M34.7244 25.777H37.0447V25.1729H34.7244V25.777ZM39.7257 25.777H41.9862V25.1729H39.7257V25.777Z" fill="#CCCCCC"/>
<path fill-rule="evenodd" clip-rule="evenodd" d="M55.9573 0.846225H57.81V0C57.81 0 57.0642 0.255303 55.9573 0.846225Z" fill="#CCCCCC"/>
<path fill-rule="evenodd" clip-rule="evenodd" d="M54.5248 1.69164H57.81V0.846191H55.9573C55.4678 1.10726 54.9899 1.38934 54.5248 1.69164Z" fill="#CCCCCC"/>
<path fill-rule="evenodd" clip-rule="evenodd" d="M53.351 2.51756H57.8099V1.69189H54.5247C54.1235 1.95275 53.7321 2.22816 53.351 2.51756ZM52.3158 3.36339H57.8099V2.51756H53.351C52.9962 2.7874 52.6509 3.06951 52.3158 3.36339ZM51.4156 4.20923H56.919C57.4653 3.95276 57.8103 3.84684 57.8103 3.84684V3.36339H52.3162C52.0064 3.63489 51.706 3.917 51.4156 4.20923Z" fill="#CCCCCC"/>
<path fill-rule="evenodd" clip-rule="evenodd" d="M50.6281 5.05472H55.4168C55.8965 4.737 56.3985 4.45419 56.9188 4.2085H51.4154C51.1438 4.48191 50.8813 4.76413 50.6281 5.05472ZM49.9395 5.90056H54.2815C54.6437 5.59749 55.0227 5.31522 55.4168 5.05511H50.6281C50.3895 5.32937 50.1598 5.61133 49.9395 5.90056Z" fill="#CCCCCC"/>
<path fill-rule="evenodd" clip-rule="evenodd" d="M49.3346 6.74623H53.3683C53.658 6.4488 53.9628 6.16648 54.2816 5.90039H49.9395C49.7289 6.17579 49.5272 6.45788 49.3346 6.74623ZM48.8178 7.57189H52.6349C52.8667 7.28553 53.1115 7.01002 53.3686 6.74623H49.335C49.1565 7.01201 48.9846 7.2871 48.8178 7.57189Z" fill="#CCCCCC"/>
<path fill-rule="evenodd" clip-rule="evenodd" d="M48.3564 8.41761H52.0082C52.2047 8.12671 52.4138 7.8445 52.6348 7.57178H48.8177C48.6557 7.84918 48.5019 8.13124 48.3564 8.41761ZM47.9579 9.26384H51.4887C51.6555 8.96741 51.8289 8.68572 52.0086 8.418H48.3567C48.2171 8.69193 48.0836 8.97362 47.9579 9.26384Z" fill="#CCCCCC"/>
<path fill-rule="evenodd" clip-rule="evenodd" d="M47.6169 10.1095H51.058C51.1908 9.82225 51.3343 9.5401 51.4883 9.26367H47.9575C47.8363 9.54245 47.7227 9.8245 47.6169 10.1095Z" fill="#CCCCCC"/>
<path fill-rule="evenodd" clip-rule="evenodd" d="M47.33 10.9547H50.706C50.815 10.6622 50.9326 10.3797 51.0575 10.1089H47.6164C47.5151 10.3844 47.4197 10.6664 47.33 10.9547ZM47.0984 11.7804H50.4266C50.5132 11.496 50.6063 11.2209 50.7064 10.9547H47.3304C47.2458 11.2279 47.1684 11.5032 47.0984 11.7804Z" fill="#CCCCCC"/>
<path fill-rule="evenodd" clip-rule="evenodd" d="M46.9052 12.6266H50.2032C50.2707 12.336 50.3448 12.0539 50.4267 11.7808H47.0984C47.0269 12.061 46.9625 12.3431 46.9052 12.6266ZM46.7574 13.4724H50.0333C50.0825 13.1822 50.1392 12.9005 50.2032 12.6266H46.9052C46.8497 12.9032 46.8005 13.1853 46.7574 13.4724Z" fill="#CCCCCC"/>
<path fill-rule="evenodd" clip-rule="evenodd" d="M46.6511 14.318H49.9142C49.9468 14.0286 49.9871 13.7465 50.0333 13.4722H46.7574C46.7155 13.7533 46.68 14.0353 46.6511 14.318ZM46.5809 15.1638H49.8416C49.8591 14.8752 49.8832 14.5931 49.9146 14.318H46.6515C46.6218 14.5994 46.5983 14.8814 46.5809 15.1638ZM46.5522 15.9895H49.8114C49.8153 15.7086 49.825 15.4331 49.8416 15.1642H46.5809C46.5657 15.4391 46.5562 15.7142 46.5522 15.9895Z" fill="#CCCCCC"/>
<path fill-rule="evenodd" clip-rule="evenodd" d="M46.5541 16.8351H49.8203C49.8123 16.6338 49.8083 16.4324 49.8082 16.231C49.8082 16.1499 49.8098 16.07 49.8113 15.9893H46.5521C46.5506 16.1029 46.5475 16.2166 46.5475 16.3319C46.5475 16.5018 46.5506 16.6694 46.5541 16.8351ZM54.5492 16.8351H57.8099V16.3319H54.5492V16.8351Z" fill="#CCCCCC"/>
<path fill-rule="evenodd" clip-rule="evenodd" d="M46.5976 17.6821H49.8796C49.852 17.4005 49.8324 17.1182 49.8207 16.8354H46.5545C46.5627 17.1226 46.577 17.4046 46.5976 17.6821ZM54.5492 17.6821H57.81V16.8354H54.5492V17.6821Z" fill="#CCCCCC"/>
<path fill-rule="evenodd" clip-rule="evenodd" d="M46.6764 18.528H49.9895C49.9441 18.2472 49.9075 17.9651 49.8797 17.6821H46.5976C46.6178 17.9685 46.6438 18.2513 46.6764 18.528ZM54.5492 18.528H57.81V17.6821H54.5492V18.528Z" fill="#CCCCCC"/>
<path fill-rule="evenodd" clip-rule="evenodd" d="M46.8013 19.3732H50.1532C50.0898 19.093 50.0352 18.8109 49.9895 18.5273H46.6764C46.7113 18.8149 46.7536 19.0965 46.8013 19.3732ZM54.5493 19.3732H57.81V18.5273H54.5493V19.3732Z" fill="#CCCCCC"/>
<path fill-rule="evenodd" clip-rule="evenodd" d="M46.9704 20.2189H50.3759C50.2924 19.9395 50.2181 19.6574 50.1532 19.373H46.8013C46.8513 19.6609 46.9076 19.943 46.9704 20.2189ZM54.5492 20.2189H57.81V19.373H54.5492V20.2189Z" fill="#CCCCCC"/>
<path fill-rule="evenodd" clip-rule="evenodd" d="M47.1804 21.0445H50.6534C50.5515 20.7727 50.4589 20.4974 50.376 20.2192H46.9705C47.0342 20.5005 47.1036 20.7756 47.1804 21.0445ZM54.5493 21.0445H57.81V20.2192H54.5493V21.0445ZM47.4462 21.8911H51.0057C50.8784 21.6131 50.7609 21.3308 50.6534 21.0445H47.1804C47.2623 21.3332 47.3508 21.616 47.4462 21.8911ZM54.5493 21.8911H57.81V21.0445H54.5493V21.8911Z" fill="#CCCCCC"/>
<path fill-rule="evenodd" clip-rule="evenodd" d="M47.7681 22.7365H51.4335C51.2802 22.46 51.1373 22.1778 51.0052 21.8906H47.4457C47.5469 22.1797 47.6544 22.4614 47.7681 22.7365ZM54.5492 22.7365H57.8099V21.8906H54.5492V22.7365Z" fill="#CCCCCC"/>
<path fill-rule="evenodd" clip-rule="evenodd" d="M48.1511 23.5822H51.9477C51.7655 23.307 51.5942 23.0248 51.434 22.7363H47.7686C47.8888 23.0258 48.0169 23.3079 48.1511 23.5822ZM54.5492 23.5822H57.81V22.7363H54.5492V23.5822Z" fill="#CCCCCC"/>
<path fill-rule="evenodd" clip-rule="evenodd" d="M48.5989 24.4279H52.5615C52.345 24.1548 52.1402 23.8726 51.9477 23.582H48.1511C48.2935 23.873 48.4437 24.1543 48.5989 24.4279ZM54.5492 24.4279H57.81V23.582H54.5492V24.4279Z" fill="#CCCCCC"/>
<path fill-rule="evenodd" clip-rule="evenodd" d="M49.1052 25.2535H53.2777C53.0266 24.9894 52.7876 24.714 52.5614 24.4282H48.5988C48.7584 24.7088 48.9273 24.9841 49.1052 25.2535ZM54.5492 25.2535H57.8099V24.4282H54.5492V25.2535Z" fill="#CCCCCC"/>
<path fill-rule="evenodd" clip-rule="evenodd" d="M49.7032 26.0995H54.1819C53.8639 25.8356 53.562 25.5529 53.2778 25.2529H49.1053C49.2952 25.5417 49.4946 25.824 49.7032 26.0995ZM54.5493 26.0995H57.81V25.2529H54.5493V26.0995Z" fill="#CCCCCC"/>
<path fill-rule="evenodd" clip-rule="evenodd" d="M50.3903 26.9454H57.81V26.0996H54.5493V26.3817C54.5493 26.3817 54.4116 26.2886 54.1819 26.0996H49.7032C49.9226 26.3892 50.1518 26.6713 50.3903 26.9454Z" fill="#CCCCCC"/>
<path fill-rule="evenodd" clip-rule="evenodd" d="M51.1806 27.7911H57.8099V26.9453H50.3902C50.6486 27.2425 50.9132 27.5234 51.1806 27.7911Z" fill="#CCCCCC"/>
<path fill-rule="evenodd" clip-rule="evenodd" d="M52.0925 28.6369H57.81V27.791H51.1807C51.4745 28.0837 51.7786 28.3658 52.0925 28.6369Z" fill="#CCCCCC"/>
<path fill-rule="evenodd" clip-rule="evenodd" d="M53.1489 29.4826H57.8103V28.6367H52.0928C52.434 28.9319 52.7863 29.214 53.1489 29.4826ZM54.3567 30.3086H57.8099V29.4826H53.1485C53.5406 29.7732 53.9436 30.0487 54.3567 30.3086ZM55.8467 31.1544H57.8103V30.3086H54.3571C54.8926 30.6442 55.397 30.9255 55.8467 31.1544Z" fill="#CCCCCC"/>
<path fill-rule="evenodd" clip-rule="evenodd" d="M57.81 32.0001V31.1543H55.8463C57.015 31.7495 57.81 32.0001 57.81 32.0001Z" fill="#CCCCCC"/>
<path fill-rule="evenodd" clip-rule="evenodd" d="M63.3518 17.158H65.7322V16.9966H63.3518V17.158ZM68.5134 17.158H70.9938V16.9966H68.5134V17.158ZM63.3518 17.7415H65.7322V17.158H63.3518V17.7415ZM68.5134 17.7415H70.9938V17.158H68.5134V17.7415Z" fill="#CCCCCC"/>
<path fill-rule="evenodd" clip-rule="evenodd" d="M63.3518 18.326H65.7322V17.7417H63.3518V18.326ZM68.5134 18.326H70.9938V17.7417H68.5134V18.326Z" fill="#CCCCCC"/>
<path fill-rule="evenodd" clip-rule="evenodd" d="M63.3518 18.9092H65.7322V18.3257H63.3518V18.9092ZM68.5134 18.9092H70.9938V18.3257H68.5134V18.9092ZM63.3518 19.4936H65.7322V18.9092H63.3518V19.4936ZM68.5134 19.4936H70.9938V18.9092H68.5134V19.4936Z" fill="#CCCCCC"/>
<path fill-rule="evenodd" clip-rule="evenodd" d="M63.3518 20.0785H65.7322V19.4941H63.3518V20.0785ZM68.5134 20.0785H70.9938V19.4941H68.5134V20.0785ZM63.3518 20.6628H65.7322V20.0785H63.3518V20.6628ZM68.5134 20.6628H70.9938V20.0785H68.5134V20.6628Z" fill="#CCCCCC"/>
<path fill-rule="evenodd" clip-rule="evenodd" d="M63.3518 21.2457H65.7322V20.6621H63.3518V21.2457ZM68.5134 21.2457H70.9938V20.6621H68.5134V21.2457ZM63.3518 21.8498H65.7322V21.2457H63.3518V21.8498ZM68.5134 21.8498H70.9938V21.2457H68.5134V21.8498ZM63.3518 22.4341H65.7322V21.8498H63.3518V22.4341ZM68.5134 22.4341H70.9938V21.8498H68.5134V22.4341Z" fill="#CCCCCC"/>
<path fill-rule="evenodd" clip-rule="evenodd" d="M63.4103 23.0184H65.9928C65.7814 22.7243 65.7321 22.4341 65.7321 22.4341H63.3517C63.3517 22.4341 63.3482 22.6696 63.4103 23.0184ZM68.4073 23.0184H70.9522C70.9809 22.8244 70.991 22.6653 70.9937 22.5629V22.4341H68.5133C68.5133 22.4341 68.542 22.7243 68.4073 23.0184ZM63.5605 23.602H66.9842C66.4817 23.5298 66.1764 23.2729 65.9928 23.0184H63.4103C63.4413 23.1903 63.4883 23.3897 63.5605 23.602ZM67.5607 23.602H70.8191C70.8851 23.3897 70.9258 23.1903 70.9518 23.0184H68.407C68.2906 23.2729 68.0504 23.5298 67.5607 23.602Z" fill="#CCCCCC"/>
<path fill-rule="evenodd" clip-rule="evenodd" d="M63.8142 24.1864H70.5836C70.6853 23.9885 70.7617 23.7902 70.8192 23.6021H67.5608C67.3696 23.6299 67.1754 23.6299 66.9842 23.6021H63.5605C63.6241 23.7898 63.7064 23.9885 63.8142 24.1864Z" fill="#CCCCCC"/>
<path fill-rule="evenodd" clip-rule="evenodd" d="M64.2205 24.7704H70.1965C70.3471 24.5907 70.4769 24.3947 70.5837 24.186H63.8143C63.9277 24.3952 64.064 24.5911 64.2205 24.7704ZM64.9053 25.3539H69.531C69.7809 25.1939 70.0052 24.9971 70.1965 24.7704H64.2205C64.419 24.9973 64.6498 25.1939 64.9053 25.3539Z" fill="#CCCCCC"/>
<path fill-rule="evenodd" clip-rule="evenodd" d="M69.531 25.3535H64.9053C65.4601 25.7019 66.2117 25.9378 67.2325 25.9378C68.2483 25.9378 68.9901 25.7023 69.531 25.3535Z" fill="#CCCCCC"/>
<path fill-rule="evenodd" clip-rule="evenodd" d="M64.8932 4.26948H69.4697C68.9156 3.92029 68.1609 3.68555 67.1327 3.68555C66.155 3.68516 65.4306 3.92029 64.8932 4.26948ZM64.2286 4.85342H70.151C69.9541 4.6261 69.7244 4.4293 69.4697 4.26948H64.8932C64.6444 4.43066 64.4205 4.6274 64.2286 4.85342Z" fill="#CCCCCC"/>
<path fill-rule="evenodd" clip-rule="evenodd" d="M63.8309 5.43745H70.5495C70.4385 5.22875 70.3049 5.03292 70.151 4.85352H64.2286C64.0756 5.03345 63.9423 5.2292 63.8309 5.43745ZM63.5775 6.02139H70.7963C70.7313 5.81983 70.6486 5.62442 70.5491 5.43745H63.8305C63.7304 5.62487 63.6458 5.82017 63.5775 6.02139ZM63.4239 6.60572H65.949C66.1348 6.33373 66.477 6.08192 67.1122 6.08192C67.7578 6.08192 68.1059 6.33334 68.2929 6.60572H70.9398C70.9068 6.40775 70.859 6.21255 70.7966 6.02178H63.5779C63.5131 6.21261 63.4616 6.40773 63.4239 6.60572Z" fill="#CCCCCC"/>
<path fill-rule="evenodd" clip-rule="evenodd" d="M63.3534 7.18931H65.7376C65.7605 6.98057 65.833 6.78034 65.9491 6.60537H63.424C63.3731 6.87115 63.358 7.08105 63.3534 7.18931ZM68.5075 7.18931H70.9938V7.14314C70.9881 6.96273 70.9701 6.78293 70.9399 6.60498H68.293C68.4482 6.82963 68.4936 7.06825 68.5075 7.18931ZM63.3518 7.79342H65.7322V7.26962C65.7322 7.26962 65.7322 7.23936 65.7376 7.18931H63.3534C63.351 7.24091 63.3518 7.26962 63.3518 7.26962V7.79342ZM68.5134 7.79342H70.9938V7.18931H68.5075C68.5137 7.23936 68.5137 7.26962 68.5137 7.26962V7.79342H68.5134Z" fill="#CCCCCC"/>
<path fill-rule="evenodd" clip-rule="evenodd" d="M63.3518 8.37778H65.7322V7.79346H63.3518V8.37778ZM68.5134 8.37778H70.9938V7.79346H68.5134V8.37778ZM63.3518 8.96172H65.7322V8.37778H63.3518V8.96172ZM68.5134 8.96172H70.9938V8.37778H68.5134V8.96172Z" fill="#CCCCCC"/>
<path fill-rule="evenodd" clip-rule="evenodd" d="M63.3518 9.54536H65.7322V8.96143H63.3518V9.54536ZM68.5134 9.54536H70.9938V8.96143H68.5134V9.54536ZM63.3518 10.1297H65.7322V9.54575H63.3518V10.1297ZM68.5134 10.1297H70.9938V9.54575H68.5134V10.1297Z" fill="#CCCCCC"/>
<path fill-rule="evenodd" clip-rule="evenodd" d="M63.3518 10.7138H65.7322V10.1299H63.3518V10.7138ZM68.5134 10.7138H70.9938V10.1299H68.5134V10.7138ZM63.3518 11.2978H65.7322V10.7138H63.3518V11.2978ZM68.5134 11.2978H70.9938V10.7138H68.5134V11.2978ZM63.3518 11.8817H65.7322V11.2978H63.3518V11.8817ZM68.5134 11.8817H70.9938V11.2978H68.5134V11.8817Z" fill="#CCCCCC"/>
<path fill-rule="evenodd" clip-rule="evenodd" d="M63.3518 12.4653H65.7322V11.8813H63.3518V12.4653ZM68.5134 12.4653H70.9938V11.8813H68.5134V12.4653Z" fill="#CCCCCC"/>
<path fill-rule="evenodd" clip-rule="evenodd" d="M63.3518 13.0497H65.7322V12.4653H63.3518V13.0497ZM68.5134 13.0497H70.9938V12.4653H68.5134V13.0497Z" fill="#CCCCCC"/>
<path fill-rule="evenodd" clip-rule="evenodd" d="M63.3518 13.6337H65.7322V13.0498H63.3518V13.6337ZM68.5134 13.6337H70.9938V13.0498H68.5134V13.6337ZM63.3518 14.2181H65.7322V13.6341H63.3518V14.2181ZM68.5134 14.2181H70.9938V13.6341H68.5134V14.2181ZM63.3518 14.8222H65.7322V14.2181H63.3518V14.8222ZM68.5134 14.8222H70.9938V14.2181H68.5134V14.8222Z" fill="#CCCCCC"/>
<path fill-rule="evenodd" clip-rule="evenodd" d="M63.3518 15.4057H65.7322V14.8218H63.3518V15.4057ZM68.5134 15.4057H70.9938V14.8218H68.5134V15.4057ZM63.3518 15.9897H65.7322V15.4057H63.3518V15.9897ZM68.5134 15.9897H70.9938V15.4057H68.5134V15.9897Z" fill="#CCCCCC"/>
<path fill-rule="evenodd" clip-rule="evenodd" d="M63.3518 16.5736H65.7322V15.9893H63.3518V16.5736ZM68.5134 16.5736H70.9938V15.9893H68.5134V16.5736ZM70.9938 16.9965V16.5736H68.5134V16.9965H70.9938ZM65.7322 16.5736H63.3518V16.9965H65.7322V16.5736Z" fill="#CCCCCC"/>
<path fill-rule="evenodd" clip-rule="evenodd" d="M23.4387 4.43062H28.0508C27.5099 4.08258 26.7662 3.84668 25.7422 3.84668C24.723 3.84668 23.9803 4.08258 23.4387 4.43062ZM22.7721 5.01456H28.7135C28.5236 4.78723 28.3 4.5903 28.0504 4.43062H23.4387C23.1883 4.59059 22.9636 4.78746 22.7721 5.01456Z" fill="#CCCCCC"/>
<path fill-rule="evenodd" clip-rule="evenodd" d="M22.3958 5.5789H29.0856C28.9828 5.37788 28.8582 5.18882 28.7139 5.01514H22.7721C22.6265 5.18878 22.5003 5.37782 22.3958 5.5789Z" fill="#CCCCCC"/>
<path fill-rule="evenodd" clip-rule="evenodd" d="M22.1556 6.16206H29.3204C29.2599 5.96074 29.1814 5.76529 29.0857 5.57812H22.3958C22.2987 5.76531 22.2183 5.96072 22.1556 6.16206ZM22.0214 6.74639H24.6539C24.8351 6.50156 25.1688 6.26294 25.7822 6.26294C26.4151 6.26294 26.7499 6.50156 26.9261 6.74639H29.4488C29.4214 6.54871 29.3786 6.35348 29.3208 6.16245H22.1556C22.0885 6.37702 22.047 6.57683 22.0214 6.74639Z" fill="#CCCCCC"/>
<path fill-rule="evenodd" clip-rule="evenodd" d="M21.981 7.31035H24.4417V7.26999C24.4417 7.26999 24.463 7.0046 24.6539 6.74658H22.0214C21.9736 7.06125 21.981 7.26999 21.981 7.26999V7.31035ZM27.1224 7.31035H29.483V7.14428C29.4789 7.01117 29.4674 6.87839 29.4484 6.74658H26.9257C27.1119 7.0046 27.1224 7.26999 27.1224 7.26999V7.31035ZM21.981 7.89428H24.4417V7.31035H21.981V7.89428ZM27.1224 7.89428H29.483V7.31035H27.1224V7.89428Z" fill="#CCCCCC"/>
<path fill-rule="evenodd" clip-rule="evenodd" d="M21.981 8.47896H24.4417V7.89502H21.981V8.47896ZM27.1224 8.47896H29.483V7.89502H27.1224V8.47896ZM21.981 9.04272H24.4417V8.47896H21.981V9.04272ZM27.1224 9.04272H29.483V8.47896H27.1224V9.04272Z" fill="#CCCCCC"/>
<path fill-rule="evenodd" clip-rule="evenodd" d="M21.981 9.62593H24.4417V9.04199H21.981V9.62593ZM27.1224 9.62593H29.483V9.04199H27.1224V9.62593ZM21.981 10.1897H24.4417V9.62593H21.981V10.1897ZM27.1224 10.1897H29.483V9.62593H27.1224V10.1897Z" fill="#CCCCCC"/>
<path fill-rule="evenodd" clip-rule="evenodd" d="M21.981 10.7743H24.4417V10.1899H21.981V10.7743ZM27.1224 10.7743H29.483V10.1899H27.1224V10.7743ZM21.981 11.3582H24.4417V10.7743H21.981V11.3582ZM27.1224 11.3582H29.483V10.7743H27.1224V11.3582Z" fill="#CCCCCC"/>
<path fill-rule="evenodd" clip-rule="evenodd" d="M21.981 11.9217H24.4417V11.3579H21.981V11.9217ZM27.1224 11.9217H29.483V11.3579H27.1224V11.9217Z" fill="#CCCCCC"/>
<path fill-rule="evenodd" clip-rule="evenodd" d="M21.981 12.5062H24.4417V11.9219H21.981V12.5062ZM27.1224 12.5062H29.483V11.9219H27.1224V12.5062Z" fill="#CCCCCC"/>
<path fill-rule="evenodd" clip-rule="evenodd" d="M21.981 13.0898H24.4417V12.5059H21.981V13.0898ZM27.1224 13.0898H29.483V12.5059H27.1224V13.0898Z" fill="#CCCCCC"/>
<path fill-rule="evenodd" clip-rule="evenodd" d="M21.981 13.6536H24.4417V13.0898H21.981V13.6536ZM27.1224 13.6536H29.483V13.0898H27.1224V13.6536ZM21.981 14.2375H24.4417V13.6536H21.981V14.2375ZM27.1224 14.2375H29.483V13.6536H27.1224V14.2375ZM21.981 14.8219H24.4417V14.2379H21.981V14.8219ZM27.1224 14.8219H29.483V14.2379H27.1224V14.8219Z" fill="#CCCCCC"/>
<path fill-rule="evenodd" clip-rule="evenodd" d="M21.981 15.3855H24.4417V14.8218H21.981V15.3855ZM27.1224 15.3855H29.483V14.8218H27.1224V15.3855ZM21.981 15.9695H24.4417V15.3855H21.981V15.9695ZM27.1224 15.9695H29.483V15.3855H27.1224V15.9695Z" fill="#CCCCCC"/>
<path fill-rule="evenodd" clip-rule="evenodd" d="M21.981 16.5537H24.4417V15.9697H21.981V16.5537ZM27.1224 16.5537H29.483V15.9697H27.1224V16.5537Z" fill="#CCCCCC"/>
<path fill-rule="evenodd" clip-rule="evenodd" d="M21.981 17.117H24.4417V16.5532H21.981V17.117ZM27.1224 17.117H29.483V16.5532H27.1224V17.117ZM21.981 17.7013H24.4417V17.117H21.981V17.7013ZM27.1224 17.7013H29.483V17.117H27.1224V17.7013Z" fill="#CCCCCC"/>
<path fill-rule="evenodd" clip-rule="evenodd" d="M21.9811 18.2654H24.4417V17.7017H21.9811V18.2654ZM27.1224 18.2654H29.483V17.7017H27.1224V18.2654ZM21.9811 18.8497H24.4417V18.2654H21.9811V18.8497ZM27.1224 18.8497H29.483V18.2654H27.1224V18.8497ZM18.8872 19.4333H29.483V18.8497H27.1224V18.9906H24.4417V18.8497H21.9811V18.9906H18.6L18.8872 19.4333Z" fill="#CCCCCC"/>
<path fill-rule="evenodd" clip-rule="evenodd" d="M19.253 19.9981H29.483V19.4336H18.8871L19.253 19.9981ZM19.6313 20.5817H29.483V19.9981H19.253L19.6313 20.5817Z" fill="#CCCCCC"/>
<path fill-rule="evenodd" clip-rule="evenodd" d="M20.01 21.1655H29.483V20.5815H19.6313L20.01 21.1655ZM22.0811 21.7296H24.4017V21.4072H27.1825V21.7296H29.483V21.1655H20.01L20.1407 21.3672H22.0811V21.7296Z" fill="#CCCCCC"/>
<path fill-rule="evenodd" clip-rule="evenodd" d="M22.0811 22.3138H24.4017V21.7295H22.0811V22.3138ZM27.1825 22.3138H29.483V21.7295H27.1825V22.3138Z" fill="#CCCCCC"/>
<path fill-rule="evenodd" clip-rule="evenodd" d="M22.0811 22.897H24.4017V22.3135H22.0811V22.897ZM27.1825 22.897H29.483V22.3135H27.1825V22.897ZM22.0811 23.4608H24.4017V22.897H22.0811V23.4608ZM27.1825 23.4608H29.483V22.897H27.1825V23.4608Z" fill="#CCCCCC"/>
<path fill-rule="evenodd" clip-rule="evenodd" d="M22.0811 24.0453H24.4017V23.4609H22.0811V24.0453ZM27.1825 24.0453H29.483V23.4609H27.1825V24.0453ZM22.0811 24.6296H24.4017V24.0453H22.0811V24.6296ZM27.1825 24.6296H29.483V24.0453H27.1825V24.6296ZM22.0811 25.1933H24.4017V24.6296H22.0811V25.1933ZM27.1825 25.1933H29.483V24.6296H27.1825V25.1933Z" fill="#CCCCCC"/>
<path fill-rule="evenodd" clip-rule="evenodd" d="M22.0811 25.7764H24.4017V25.1929H22.0811V25.7764ZM27.1825 25.7764H29.483V25.1929H27.1825V25.7764Z" fill="#CCCCCC"/>
</g>
<defs>
<filter id="filter0_d_629_3286" x="0.0566406" y="0" width="74.9372" height="40" filterUnits="userSpaceOnUse" color-interpolation-filters="sRGB">
<feFlood flood-opacity="0" result="BackgroundImageFix"/>
<feColorMatrix in="SourceAlpha" type="matrix" values="0 0 0 0 0 0 0 0 0 0 0 0 0 0 0 0 0 0 127 0" result="hardAlpha"/>
<feOffset dy="4"/>
<feGaussianBlur stdDeviation="2"/>
<feComposite in2="hardAlpha" operator="out"/>
<feColorMatrix type="matrix" values="0 0 0 0 0 0 0 0 0 0 0 0 0 0 0 0 0 0 0.25 0"/>
<feBlend mode="normal" in2="BackgroundImageFix" result="effect1_dropShadow_629_3286"/>
<feBlend mode="normal" in="SourceGraphic" in2="effect1_dropShadow_629_3286" result="shape"/>
</filter>
</defs>
</svg>
